<mxfile host="www.draw.io" modified="2020-01-02T07:24:19.672Z" agent="Mozilla/5.0 (Macintosh; Intel Mac OS X 10_13_6) AppleWebKit/537.36 (KHTML, like Gecko) Chrome/76.0.3809.100 Safari/537.36" etag="u9ocWy48fVl9eGe0VY0U" version="12.4.8" type="github">
  <diagram id="B8PoPTXLAeX7Q7Gz6cdd" name="Page-1">
    <mxGraphModel dx="1186" dy="660" grid="1" gridSize="10" guides="1" tooltips="1" connect="1" arrows="1" fold="1" page="1" pageScale="1" pageWidth="850" pageHeight="1100" math="0" shadow="0">
      <root>
        <mxCell id="0"/>
        <mxCell id="1" parent="0"/>
        <mxCell id="xaWnzcnXASIXlZ8LT-KV-1" value="Old system" style="rounded=0;whiteSpace=wrap;html=1;" parent="1" vertex="1">
          <mxGeometry x="150" y="150" width="120" height="60" as="geometry"/>
        </mxCell>
        <mxCell id="xaWnzcnXASIXlZ8LT-KV-2" value="New System" style="rounded=0;whiteSpace=wrap;html=1;" parent="1" vertex="1">
          <mxGeometry x="550" y="150" width="120" height="60" as="geometry"/>
        </mxCell>
        <mxCell id="xaWnzcnXASIXlZ8LT-KV-4" value="Migrate" style="text;html=1;align=center;verticalAlign=middle;resizable=0;points=[];autosize=1;" parent="1" vertex="1">
          <mxGeometry x="361" y="162" width="60" height="20" as="geometry"/>
        </mxCell>
        <mxCell id="xaWnzcnXASIXlZ8LT-KV-5" value="(Data/Services/jobs/tools)" style="text;html=1;align=center;verticalAlign=middle;resizable=0;points=[];autosize=1;" parent="1" vertex="1">
          <mxGeometry x="316" y="182" width="150" height="20" as="geometry"/>
        </mxCell>
        <mxCell id="xaWnzcnXASIXlZ8LT-KV-9" value="" style="endArrow=none;dashed=1;html=1;entryX=1;entryY=0.5;entryDx=0;entryDy=0;exitX=0;exitY=0.5;exitDx=0;exitDy=0;" parent="1" source="xaWnzcnXASIXlZ8LT-KV-2" target="xaWnzcnXASIXlZ8LT-KV-1" edge="1">
          <mxGeometry width="50" height="50" relative="1" as="geometry">
            <mxPoint x="150" y="280" as="sourcePoint"/>
            <mxPoint x="200" y="230" as="targetPoint"/>
          </mxGeometry>
        </mxCell>
        <mxCell id="xaWnzcnXASIXlZ8LT-KV-12" value="" style="endArrow=none;html=1;exitX=0.5;exitY=0;exitDx=0;exitDy=0;" parent="1" source="xaWnzcnXASIXlZ8LT-KV-1" edge="1">
          <mxGeometry width="50" height="50" relative="1" as="geometry">
            <mxPoint x="160" y="180" as="sourcePoint"/>
            <mxPoint x="210" y="120" as="targetPoint"/>
          </mxGeometry>
        </mxCell>
        <mxCell id="xaWnzcnXASIXlZ8LT-KV-17" value="" style="endArrow=none;html=1;" parent="1" edge="1">
          <mxGeometry width="50" height="50" relative="1" as="geometry">
            <mxPoint x="210" y="120" as="sourcePoint"/>
            <mxPoint x="610" y="120" as="targetPoint"/>
          </mxGeometry>
        </mxCell>
        <mxCell id="xaWnzcnXASIXlZ8LT-KV-18" value="" style="endArrow=classic;html=1;" parent="1" target="xaWnzcnXASIXlZ8LT-KV-2" edge="1">
          <mxGeometry width="50" height="50" relative="1" as="geometry">
            <mxPoint x="610" y="120" as="sourcePoint"/>
            <mxPoint x="200" y="230" as="targetPoint"/>
          </mxGeometry>
        </mxCell>
        <mxCell id="xaWnzcnXASIXlZ8LT-KV-19" value="" style="endArrow=none;html=1;entryX=0.5;entryY=1;entryDx=0;entryDy=0;" parent="1" target="xaWnzcnXASIXlZ8LT-KV-1" edge="1">
          <mxGeometry width="50" height="50" relative="1" as="geometry">
            <mxPoint x="210" y="240" as="sourcePoint"/>
            <mxPoint x="200" y="220" as="targetPoint"/>
          </mxGeometry>
        </mxCell>
        <mxCell id="xaWnzcnXASIXlZ8LT-KV-20" value="" style="endArrow=none;html=1;" parent="1" edge="1">
          <mxGeometry width="50" height="50" relative="1" as="geometry">
            <mxPoint x="610" y="240" as="sourcePoint"/>
            <mxPoint x="210" y="240" as="targetPoint"/>
          </mxGeometry>
        </mxCell>
        <mxCell id="xaWnzcnXASIXlZ8LT-KV-21" value="" style="endArrow=classic;html=1;entryX=0.5;entryY=1;entryDx=0;entryDy=0;" parent="1" target="xaWnzcnXASIXlZ8LT-KV-2" edge="1">
          <mxGeometry width="50" height="50" relative="1" as="geometry">
            <mxPoint x="610" y="240" as="sourcePoint"/>
            <mxPoint x="200" y="260" as="targetPoint"/>
          </mxGeometry>
        </mxCell>
        <mxCell id="xaWnzcnXASIXlZ8LT-KV-22" value="Online/Live migration&amp;nbsp;&lt;br&gt;keep old and new system in sync" style="text;html=1;align=center;verticalAlign=middle;resizable=0;points=[];autosize=1;" parent="1" vertex="1">
          <mxGeometry x="316" y="90" width="190" height="30" as="geometry"/>
        </mxCell>
        <mxCell id="xaWnzcnXASIXlZ8LT-KV-23" value="Offline/Async migration&amp;nbsp;&lt;br&gt;migrate from old to new system" style="text;html=1;align=center;verticalAlign=middle;resizable=0;points=[];autosize=1;" parent="1" vertex="1">
          <mxGeometry x="315" y="240" width="180" height="30" as="geometry"/>
        </mxCell>
      </root>
    </mxGraphModel>
  </diagram>
</mxfile>
